# xmcd
# 
# Track frame offsets:
#     150
#     12450
#     16500
#     19050
#     25350
#     29025
#     33525
#     52050
#     61800
#     72451
#     82800
#     96600
#     101775
#     121049
#     134263
#     144225
#     157051
#     165150
#     181350
#     187950
#     190125
#     196200
#     210375
#     214950
#     227325
#     243300
#     271350
# 
# Disc length: 3678
# 
# Revision: 1
# Processed by: cddbd v1.5.2PL0 Copyright (c) Steve Scherf et al.
# Submitted via: fre:ac v1.0.17
# 
DISCID=720e5c1b
DTITLE=Hobo - Ballada a senki fiáról
DYEAR=2004
DGENRE=Blues
TTITLE0=Ballada a Parlamenthez
TTITLE1=Mire vagyok büszke?
TTITLE2=És mire még?
TTITLE3=F.Gy. jelleméhez
TTITLE4=Kiúszom egy sziklára
TTITLE5=Magánzárka I.
TTITLE6=József Attila temetése
TTITLE7=Álom, puha német ágyban
TTITLE8=Érzékeny utazás
TTITLE9=Hunvágy
TTITLE10=Alkony a Dráá folyónál
TTITLE11=Beállok katonának
TTITLE12=Német zsoldosdal
TTITLE13=Rossz nőnél
TTITLE14=Útban hazafelé
TTITLE15=Kossuth híd
TTITLE16=Magánzárka I.
TTITLE17=Nagy Imre
TTITLE18=1956, te csillag
TTITLE19=Zsuzsának a tömlöcből
TTITLE20=Fölledt éjszaka
TTITLE21=Elmentél harminc éve
TTITLE22=Óda a magyar nyelvhez
TTITLE23=Tanuld meg ezt a versemet
TTITLE24=Magánzárka II.
TTITLE25=Haláltánc ballada
TTITLE26=Ráadás: Kínrímek
EXTD=Faludy György versei
EXTT0=
EXTT1=
EXTT2=
EXTT3=
EXTT4=
EXTT5=
EXTT6=
EXTT7=
EXTT8=
EXTT9=
EXTT10=
EXTT11=
EXTT12=
EXTT13=
EXTT14=
EXTT15=
EXTT16=
EXTT17=
EXTT18=
EXTT19=
EXTT20=
EXTT21=
EXTT22=
EXTT23=
EXTT24=
EXTT25=
EXTT26=
PLAYORDER=
